<svg width="83" height="29" viewBox="0 0 83 29" xmlns="http://www.w3.org/2000/svg"><title>Group 5</title><desc>Created with Sketch.</desc><g fill="none"><path d="M41.5 29c8.008 0 14.5-6.492 14.5-14.5s-6.492-14.5-14.5-14.5-14.5 6.492-14.5 14.5 6.492 14.5 14.5 14.5zm9.729-5c-2.13-.483-3.491-2.159-3.186-3.924.304-1.765 2.18-3.078 4.394-3.076.92-.001 1.818.231 2.564.664-.475 2.36-1.784 4.56-3.771 6.336zm-16.663-20c.284.413.435.891.434 1.379 0 .884-.487 1.709-1.293 2.193-.806.484-1.824.563-2.707.209.947-1.436 2.153-2.715 3.566-3.781zm-4.57 5.653c.525.249 1.098.38 1.679.384 2.219 0 4.019-1.8 4.019-4.021.003-.787-.229-1.557-.665-2.211 3.86-2.336 8.679-2.41 12.609-.193 3.93 2.216 6.362 6.379 6.363 10.893v.04c-2.657-1.218-5.8-.08-7.063 2.557s-.181 5.801 2.433 7.111c-4.453 3.607-10.786 3.724-15.369.284-4.583-3.44-6.242-9.557-4.027-14.844h.022zm12.004 4.347c2.761 0 5-2.239 5-5s-2.239-5-5-5-5 2.239-5 5 2.239 5 5 5zm.5-7c1.933 0 3.5 1.567 3.5 3.5s-1.567 3.5-3.5 3.5-3.5-1.567-3.5-3.5 1.567-3.5 3.5-3.5zm-4.5 8.5c0-1.933-1.567-3.5-3.5-3.5s-3.5 1.567-3.5 3.5 1.567 3.5 3.5 3.5 3.5-1.567 3.5-3.5zm-4-2.5c0-.552.448-1 1-1s1 .448 1 1-.448 1-1 1-1-.448-1-1zm6.5 8c-1.933 0-3.5 1.567-3.5 3.5s1.567 3.5 3.5 3.5 3.5-1.567 3.5-3.5-1.567-3.5-3.5-3.5zm-.5 3c-.552 0-1-.448-1-1s.448-1 1-1 1 .448 1 1-.448 1-1 1zm3-6c0 .552-.448 1-1 1h-2c-.552 0-1-.448-1-1s.448-1 1-1h2c.552 0 1 .448 1 1zm6-7c0-.552.448-1 1-1h2c.552 0 1 .448 1 1s-.448 1-1 1h-2c-.552 0-1-.448-1-1z" fill="#82858A" fill-rule="nonzero"/><path d="M3.794 14.138c-.362-.783-.549-1.657-.549-2.593 0-2.105 1.032-3.883 2.841-5.072 1.519-.999 3.352-1.473 5.435-1.473 2.18 0 4.065.488 5.595 1.532 1.835 1.253 2.798 3.168 2.739 5.405l-.013.502-.67 1.79c.566.94.86 2.029.86 3.211 0 2.143-1.016 3.955-2.836 5.127-1.506.97-3.354 1.418-5.499 1.418-2.124 0-4.017-.469-5.627-1.443-2.063-1.248-3.123-3.326-3.067-5.811l.011-.508.78-2.085zm18.434 3.665v.29l1.355 1.355 1.355-1.355v-.29h-2.71zm6 1.646v4.354h-9.29v-18.621h8.413c2.301 0 4.277.565 5.836 1.771 1.72 1.33 2.645 3.209 2.645 5.381 0 2.174-.926 4.053-2.649 5.38-1.357 1.045-3.028 1.607-4.954 1.735zm-3-9.013v3.788h3v-3.788h-3zm16.121 11.065l-.767 2.302h-9.922l6.822-18.621h7.724l6.837 18.621h-9.917l-.777-2.302zm.001-4.951l1.491.5 1.314-3.918-2.786-.934v-.02l-.029.01-.029-.01v.02l-2.784.941 1.324 3.918 1.499-.506zm21.097.053l-2.777.05c.01.54-.067.732-.223.86v2.034h2.255c.518-.841.738-1.837.745-2.944zm-2.98-5.082c.174.138.241.307.233.793l2.767.051c-.008-1.101-.248-2.104-.787-2.944h-2.213v2.101zm3.106.845l.097.002v-.016l-2.587-1.452-.029.052 2.519 1.415zm2.456 1.979l.63 1.684.009.515c.042 2.329-.791 4.321-2.505 5.678-1.528 1.21-3.504 1.762-5.849 1.762-2.455 0-4.579-.72-6.225-2.199-1.709-1.536-2.586-3.6-2.586-5.976v-2.635c0-2.347.838-4.392 2.484-5.931 1.609-1.505 3.697-2.244 6.104-2.244 2.401 0 4.418.541 5.984 1.728 1.781 1.35 2.666 3.353 2.623 5.696l-.014.755-.655 1.167zm13.86 1.204h.993v8.254h-15.277v-18.621h15.287v8.254h-1.003v2.114z" stroke="#FAFAFA" stroke-width="6" fill="#4A4A4A"/></g></svg>