<svg width="58" height="13" viewBox="0 0 58 13" xmlns="http://www.w3.org/2000/svg"><title>space</title><desc>Created with Sketch.</desc><path d="M6.773 8.984c0-.406-.133-.717-.398-.934-.266-.216-.747-.447-1.445-.691-1.411-.458-2.46-.947-3.145-1.465-.685-.518-1.027-1.264-1.027-2.238 0-.953.398-1.724 1.195-2.313.797-.589 1.81-.883 3.039-.883 1.297 0 2.341.303 3.133.91.792.607 1.174 1.462 1.148 2.566l-.016.047h-2.563c0-.536-.146-.926-.438-1.168-.292-.242-.732-.363-1.32-.363-.479 0-.857.117-1.133.352-.276.234-.414.523-.414.867 0 .333.142.6.426.801.284.201.814.452 1.59.754 1.318.391 2.315.867 2.992 1.43s1.016 1.333 1.016 2.313c0 1-.391 1.783-1.172 2.348-.781.565-1.818.848-3.109.848-1.286 0-2.376-.303-3.27-.91-.893-.607-1.327-1.561-1.301-2.863l.016-.047h2.57c0 .661.163 1.132.488 1.41.326.279.824.418 1.496.418.552 0 .964-.109 1.234-.328.271-.219.406-.505.406-.859zm9.219-.883v3.898h-2.641v-11.375h4.344c1.349 0 2.419.344 3.211 1.031.792.688 1.188 1.591 1.188 2.711 0 1.12-.396 2.022-1.188 2.707-.792.685-1.862 1.027-3.211 1.027h-1.703zm0-2.031h1.703c.573 0 1.01-.158 1.313-.473.302-.315.453-.72.453-1.215 0-.505-.15-.919-.449-1.242-.299-.323-.738-.484-1.316-.484h-1.703v3.414zm14.625 3.719h-3.383l-.656 2.211h-2.781l3.711-11.375h1.414v.008l.008-.008h1.414l3.719 11.375h-2.781l-.664-2.211zm-2.773-2.031h2.164l-1.063-3.531h-.047l-1.055 3.531zm18.18.406l.016.047c.021 1.297-.345 2.28-1.098 2.949-.753.669-1.819 1.004-3.199 1.004-1.406 0-2.535-.43-3.387-1.289-.852-.859-1.277-1.984-1.277-3.375v-2.375c0-1.385.41-2.509 1.23-3.371.82-.862 1.905-1.293 3.254-1.293 1.443 0 2.559.336 3.348 1.008.789.672 1.173 1.648 1.152 2.93l-.023.047h-2.57c0-.698-.148-1.198-.445-1.5-.297-.302-.784-.453-1.461-.453-.594 0-1.049.238-1.367.715-.318.477-.477 1.111-.477 1.902v2.391c0 .797.174 1.435.523 1.914.349.479.849.719 1.5.719.604 0 1.04-.151 1.309-.453.268-.302.402-.807.402-1.516h2.57zm10.625-1.031h-4.008v2.836h4.805v2.031h-7.445v-11.375h7.453v2.031h-4.813v2.445h4.008v2.031z" fill="#4A4A4A"/></svg>