<svg width="71" height="15" viewBox="0 0 71 15" xmlns="http://www.w3.org/2000/svg"><title>space</title><desc>Created with Sketch.</desc><path d="M7.753 11.007c0-.505-.166-.892-.497-1.16-.331-.269-.933-.555-1.804-.859-1.761-.57-3.07-1.177-3.924-1.821-.855-.644-1.282-1.571-1.282-2.782 0-1.185.497-2.143 1.492-2.874.994-.732 2.259-1.097 3.793-1.097 1.618 0 2.922.377 3.91 1.131s1.466 1.817 1.433 3.19l-.019.058h-3.198c0-.667-.182-1.151-.546-1.452-.364-.301-.913-.452-1.648-.452-.598 0-1.069.146-1.414.437-.344.291-.517.651-.517 1.078 0 .414.177.746.531.995.354.249 1.016.562 1.984.937 1.644.486 2.889 1.078 3.734 1.777.845.699 1.267 1.657 1.267 2.874 0 1.243-.487 2.216-1.462 2.918s-2.268 1.054-3.88 1.054c-1.605 0-2.966-.377-4.08-1.131-1.115-.754-1.656-1.94-1.623-3.559l.019-.058h3.208c0 .822.203 1.406.609 1.753.406.346 1.029.52 1.867.52.689 0 1.202-.136 1.54-.408.338-.272.507-.628.507-1.068zm11.505-1.097v4.846h-3.295v-14.138h5.421c1.683 0 3.019.427 4.007 1.282.988.855 1.482 1.978 1.482 3.37 0 1.392-.494 2.513-1.482 3.365-.988.851-2.324 1.277-4.007 1.277h-2.125zm0-2.525h2.125c.715 0 1.261-.196 1.638-.587.377-.392.565-.895.565-1.51 0-.628-.187-1.143-.561-1.544-.374-.401-.921-.602-1.643-.602h-2.125v4.243zm18.252 4.622h-4.222l-.819 2.748h-3.471l4.631-14.138h1.765v.01l.01-.01h1.765l4.641 14.138h-3.471l-.829-2.748zm-3.461-2.525h2.701l-1.326-4.389h-.058l-1.316 4.389zm22.688.505l.02.058c.026 1.612-.431 2.834-1.37 3.666-.939.832-2.27 1.248-3.993 1.248-1.755 0-3.164-.534-4.227-1.602-1.063-1.068-1.594-2.466-1.594-4.195v-2.952c0-1.722.512-3.119 1.536-4.19 1.024-1.071 2.377-1.607 4.061-1.607 1.8 0 3.193.418 4.178 1.253.985.835 1.464 2.049 1.438 3.641l-.029.058h-3.208c0-.867-.185-1.489-.556-1.864-.37-.375-.978-.563-1.823-.563-.741 0-1.31.296-1.706.889-.396.592-.595 1.381-.595 2.365v2.971c0 .99.218 1.783.653 2.379.435.596 1.059.893 1.872.893.754 0 1.298-.188 1.633-.563.335-.375.502-1.003.502-1.884h3.208zm13.26-1.282h-5.002v3.525h5.996v2.525h-9.292v-14.138h9.301v2.525h-6.006v3.039h5.002v2.525z" fill="#4A4A4A"/></svg>